# 3ds Max Wavefront OBJ Exporter v0.97b - (c)2007 guruware
# File Created: 24.11.2015 09:57:11

mtllib 3d-model.mtl

#
# object Layer0_001
#

v  -3.5388 0.0000 -3.2002
v  -3.7244 0.0000 3.3858
v  -3.7244 0.0000 -3.3858
v  3.7244 0.0000 -3.3858
v  3.5388 0.0000 -3.2002
v  3.5388 0.0000 3.2002
v  3.7244 0.0000 3.3858
v  -3.5388 0.0000 3.2002
v  -3.7042 0.3937 -3.3105
v  3.7042 0.3937 -3.3105
v  4.1149 1.1811 -3.7212
v  -4.1149 1.1811 -3.7212
v  -4.1149 1.1811 3.7212
v  -3.7042 0.3937 3.3105
v  3.7042 0.3937 3.3105
v  4.1149 1.1811 3.7212
v  4.3307 1.1811 3.9370
v  -4.3307 1.1811 3.9370
v  -4.3307 1.1811 -3.9370
v  4.3307 1.1811 -3.9370
# 20 vertices

vn 0.0000 -1.0000 -0.0000
vn 0.0000 0.4625 0.8866
vn 0.8866 0.4625 -0.0000
vn 0.0000 0.4625 -0.8866
vn -0.8866 0.4625 -0.0000
vn 0.0000 1.0000 -0.0000
vn 0.0000 -0.4229 0.9062
vn 0.0000 -0.4229 -0.9062
vn 0.8896 -0.4567 0.0000
vn -0.8896 -0.4567 0.0000
# 10 vertex normals

vt 0.0000 0.0000 0.0000
# 1 texture coords

g Layer0_001
usemtl skp_front_default
s off
f 1/1/1 2/1/1 3/1/1 4/1/1 
f 5/1/1 1/1/1 4/1/1 6/1/1 
f 6/1/1 4/1/1 7/1/1 8/1/1 
f 8/1/1 7/1/1 2/1/1 1/1/1 
f 8/1/1 1/1/1 5/1/1 6/1/1 
f 9/1/2 10/1/2 11/1/2 12/1/2 
f 12/1/3 13/1/3 14/1/3 9/1/3 
f 15/1/4 14/1/4 13/1/4 16/1/4 
f 15/1/5 16/1/5 11/1/5 10/1/5 
f 9/1/6 14/1/6 15/1/6 10/1/6 
f 2/1/7 7/1/7 17/1/7 18/1/7 
f 4/1/8 3/1/8 19/1/8 20/1/8 
f 20/1/9 17/1/9 7/1/9 4/1/9 
f 2/1/10 18/1/10 19/1/10 3/1/10 
f 13/1/6 19/1/6 18/1/6 17/1/6 
f 16/1/6 13/1/6 17/1/6 11/1/6 
f 11/1/6 17/1/6 20/1/6 12/1/6 
f 12/1/6 20/1/6 19/1/6 13/1/6 
# 18 polygons

